<?xml version="1.0" encoding="UTF-8" standalone="no"?>
<!DOCTYPE svg PUBLIC "-//W3C//DTD SVG 1.1//EN" "http://www.w3.org/Graphics/SVG/1.1/DTD/svg11.dtd">
<svg width="100%" height="100%" viewBox="0 0 24 24" version="1.1" xmlns="http://www.w3.org/2000/svg" xmlns:xlink="http://www.w3.org/1999/xlink" xml:space="preserve" xmlns:serif="http://www.serif.com/" style="fill-rule:evenodd;clip-rule:evenodd;stroke-linejoin:round;stroke-miterlimit:2;">
    <g transform="matrix(0.08896,0,0,0.0990578,-30.2353,-1.08352)">
        <path d="M509.506,159.031L573.642,245.288C575.657,247.985 574.506,250.209 571.104,250.209L523.898,250.209C520.487,250.209 516.126,247.985 514.111,245.24L469.818,184.197L425.524,245.24C425.239,245.629 424.906,246.008 424.536,246.371L421.901,250.209L368.997,250.434L369.155,250.209L368.531,250.209C365.13,250.209 363.979,247.985 365.993,245.288L430.13,159.031L509.506,159.031ZM471.194,106.671L431.524,52C429.509,49.255 425.148,47.031 421.738,47.031L374.531,47.031C371.813,47.031 370.532,48.451 371.155,50.398L371,50.398L371.155,50.398C371.312,50.888 371.589,51.41 371.993,51.952L407.966,100.332L435.429,138.307L500.343,138.307L583.621,18.741C585.54,15.996 584.34,13.725 580.934,13.725L540.732,13.725C537.326,13.725 533.008,15.996 531.094,18.788L471.194,106.671Z" style="fill:rgb(255, 121, 174);"/>
    </g>
</svg>
